<?xml version="1.0" encoding="utf-8"?>
<!-- Generator: Adobe Illustrator 17.1.0, SVG Export Plug-In . SVG Version: 6.00 Build 0)  -->
<!DOCTYPE svg PUBLIC "-//W3C//DTD SVG 1.1//EN" "http://www.w3.org/Graphics/SVG/1.1/DTD/svg11.dtd">
<svg version="1.1" id="Cat" xmlns="http://www.w3.org/2000/svg" xmlns:xlink="http://www.w3.org/1999/xlink" x="0px" y="0px"
	 viewBox="0 0 512 512" enable-background="new 0 0 512 512" xml:space="preserve">
<path fill="#5AC9F3" d="M295.2,36h-78.5C103.7,36,12,127.9,12,241.2v29.6c0,27.5,5.4,53.8,15.2,77.8c3.4-0.3,6.9-0.5,10.3-0.7
	c1.4,0,2.9-0.5,4.1-1.2c7.8-4.8,15.6-9.6,23.2-14.6c6.4-4.2,12.7-8.2,20.2-10.1c0.9-0.2,2.1-1.5,2.2-2.4c2.2-16.4,4.5-32.7,6.2-49.1
	c1.1-10.8,0.6-21.9,2.2-32.7c1.5-9.9,4.5-19.7,7.7-29.2c2.3-7,4.9-14.5,9.4-20.1c4.6-5.8,7.6-12.2,10.7-18.7
	c0.9-1.8,1.6-3.7,2.6-5.4c2.1-3.5,4.2-7.1,6.4-10.5c1.4-2.1,3.1-4.2,6.1-3.6c3,0.6,3.6,3.2,4.3,5.7c0.4,1.4,0.5,2.9,1,4.3
	c2.5,7,5.1,13.9,7.7,21.1c1.1-0.6,1.4-0.7,1.6-1c7.2-8.9,14.4-17.8,21.7-26.7c2-2.4,4.1-4.8,6.3-7.1c0.5-0.5,1.2-0.8,2.4-1.5
	c-0.3,2.2-0.4,3.7-0.7,5.1c-1.8,9-2.8,17.9-1.3,27.2c0.8,5.4,2.9,8,7.9,10.2c11.1,5,20.6,12.2,25.7,24c0.4,0.9,1.3,1.6,2.2,2.1
	c3.6,2,7.4,3.6,10.8,5.9c2.6,1.9,5.3,4.3,6.8,7.1c1.7,3.3,2.4,7.1,3.1,10.8c1.1,5.4,0.2,10.5-1.4,15.8c-1.9,6.1-5.7,10.7-9.8,15.2
	c-1.1,1.2-2.2,2.5-3.5,4.1c13.4-1.9,26.1-3.6,38.8-5.4c2.8-0.4,5.6-1.1,8.2-2.1c2-0.8,4-2,5.3-3.6c6-7.2,11.8-14.5,17.6-21.9
	c14.6-18.4,29.4-36.6,46.7-52.6c9.3-8.6,18.2-17.5,27.3-26.3c3.6-3.5,7.4-6.8,11.1-10.3c0.5-0.5,1.2-1,1.4-1.6c2.3-5.8,7-8,12.7-9.2
	c2-0.4,4-1.2,5.7-2.3c7-4.6,14-8.3,22.9-4.9c4.1,1.6,6.4,3.3,7.2,7.8c0.2,1.2,0.7,2.5,1.5,3.3c5.3,5.4,6.1,11.4,2.3,18.1
	c-0.7,1.2-1.1,2.5-1.6,3.7c-1.3,3.1-2.2,6.4-3.9,9.2c-3.5,5.7-9.2,8.5-15.3,10.4c-8.7,2.6-16.4,7.1-23.5,12.7
	c-1,0.8-1.8,1.8-2.5,2.8c-2.3,3.2-4.3,6.7-6.9,9.7c-12.1,13.8-24.2,27.4-34.8,42.5c-8.2,11.6-16.8,22.9-25.4,34.2
	c-5.8,7.6-11.8,15.1-17.6,22.7c-10.1,13.2-23.4,22.6-37.1,31.6c-11.7,7.7-23.7,15-33.4,25.3c-6.3,6.6-12.7,13.2-18.9,19.9
	c-0.7,0.8-1.1,2-1.4,3.1c-4.8,17.4-11.9,33.7-22.6,48.4c-8.5,11.6-18.1,22.1-30.6,29c19.1,5.9,39.3,9,60.3,9h78.5
	C408.3,476,500,384.1,500,270.8v-29.6C500,127.9,408.3,36,295.2,36z"/>
<path fill="#FFFFFF" d="M187,438c10.7-14.6,17.8-31,22.6-48.4c0.3-1.1,0.6-2.3,1.4-3.1c6.3-6.7,12.6-13.2,18.9-19.9
	c9.7-10.3,21.7-17.6,33.4-25.3c13.7-9,27-18.3,37.1-31.6c5.8-7.6,11.8-15.1,17.6-22.7c8.5-11.3,17.2-22.6,25.4-34.2
	c10.6-15,22.7-28.7,34.8-42.5c2.6-3,4.6-6.5,6.9-9.7c0.7-1,1.5-2,2.5-2.8c7.1-5.6,14.7-10.1,23.5-12.7c6.2-1.9,11.8-4.8,15.3-10.4
	c1.7-2.8,2.6-6.1,3.9-9.2c0.5-1.2,0.9-2.5,1.6-3.7c3.8-6.6,3-12.6-2.3-18.1c-0.8-0.8-1.3-2.1-1.5-3.3c-0.8-4.5-3-6.2-7.2-7.8
	c-8.9-3.4-15.9,0.3-22.9,4.9c-1.7,1.1-3.7,1.9-5.7,2.3c-5.6,1.2-10.4,3.4-12.7,9.2c-0.2,0.6-0.9,1.1-1.4,1.6
	c-3.7,3.4-7.5,6.8-11.1,10.3c-9.1,8.7-18,17.7-27.3,26.3c-17.3,16-32.1,34.2-46.7,52.6c-5.8,7.3-11.6,14.7-17.6,21.9
	c-1.3,1.6-3.4,2.8-5.3,3.6c-2.6,1-5.4,1.7-8.2,2.1c-12.7,1.9-25.4,3.6-38.8,5.4c1.3-1.6,2.4-2.9,3.5-4.1c4.1-4.5,7.9-9.1,9.8-15.2
	c1.6-5.3,2.5-10.5,1.4-15.8c-0.7-3.7-1.4-7.6-3.1-10.8c-1.5-2.8-4.1-5.3-6.8-7.1c-3.3-2.4-7.2-3.9-10.8-5.9
	c-0.9-0.5-1.8-1.2-2.2-2.1c-5-11.8-14.5-19-25.7-24c-4.9-2.2-7-4.8-7.9-10.2c-1.4-9.3-0.5-18.2,1.3-27.2c0.3-1.4,0.4-2.9,0.7-5.1
	c-1.2,0.7-1.9,1-2.4,1.5c-2.1,2.3-4.3,4.7-6.3,7.1c-7.2,8.9-14.4,17.8-21.7,26.7c-0.2,0.2-0.5,0.3-1.6,1c-2.6-7.2-5.2-14.1-7.7-21.1
	c-0.5-1.4-0.6-2.9-1-4.3c-0.7-2.5-1.3-5.1-4.3-5.7c-3-0.6-4.7,1.4-6.1,3.6c-2.3,3.4-4.4,6.9-6.4,10.5c-1,1.7-1.8,3.6-2.6,5.4
	c-3.1,6.5-6.1,12.8-10.7,18.7c-4.5,5.6-7.1,13.1-9.4,20.1c-3.2,9.5-6.2,19.3-7.7,29.2c-1.6,10.7-1.1,21.8-2.2,32.7
	c-1.7,16.4-4,32.8-6.2,49.1c-0.1,0.9-1.3,2.2-2.2,2.4c-7.5,1.8-13.9,5.9-20.2,10.1c-7.7,5-15.4,9.8-23.2,14.6
	c-1.2,0.7-2.7,1.1-4.1,1.2c-3.5,0.1-6.9,0.3-10.3,0.7C50.3,405,97.8,448.9,156.5,467C169,460,178.6,449.6,187,438z"/>
</svg>
